<?xml version="1.0" standalone="no"?>
<!DOCTYPE svg PUBLIC "-//W3C//DTD SVG 20010904//EN"
 "http://www.w3.org/TR/2001/REC-SVG-20010904/DTD/svg10.dtd">
<svg version="1.0" xmlns="http://www.w3.org/2000/svg"
 width="768.000000pt" height="634.000000pt" viewBox="0 0 768.000000 634.000000"
 preserveAspectRatio="xMidYMid meet">

<g transform="translate(0.000000,634.000000) scale(0.100000,-0.100000)"
fill="#00a37d" stroke="none">
<path d="M0 3175 l0 -3165 690 0 690 0 2 1422 3 1423 409 -1375 c225 -756 416
-1396 423 -1423 l15 -47 724 0 724 0 -2 3163 -3 3162 -687 3 -688 2 -2 -1417
-3 -1417 -419 1295 c-231 712 -437 1349 -458 1417 l-39 122 -690 0 -689 0 0
-3165z"/>
<path d="M4010 3175 l0 -3165 825 0 825 0 0 1426 0 1427 88 -7 c201 -16 296
-58 338 -150 56 -124 57 -131 61 -1469 l4 -1227 764 0 765 0 0 1068 c0 1334
-7 1489 -79 1647 -61 134 -173 282 -266 352 -104 78 -265 151 -460 208 l-80
23 50 7 c327 46 548 148 657 305 70 102 122 269 155 500 25 180 25 768 0 954
-45 334 -129 572 -266 753 -119 157 -288 291 -457 360 -287 117 -814 152
-2281 153 l-643 0 0 -3165z m1886 2049 c159 -41 217 -113 244 -303 18 -118 8
-733 -13 -822 -29 -125 -74 -183 -164 -213 -65 -21 -165 -36 -240 -36 l-63 0
0 701 0 702 89 -7 c49 -4 115 -13 147 -22z"/>
</g>
</svg>
