<?xml version="1.0" standalone="no"?>
<!DOCTYPE svg PUBLIC "-//W3C//DTD SVG 20010904//EN"
 "http://www.w3.org/TR/2001/REC-SVG-20010904/DTD/svg10.dtd">
<svg version="1.0" xmlns="http://www.w3.org/2000/svg"
 width="654.000000pt" height="45.000000pt" viewBox="0 0 654.000000 45.000000"
 preserveAspectRatio="xMidYMid meet">

<g transform="translate(0.000000,45.000000) scale(0.100000,-0.100000)"
fill="#00a37d" stroke="none">
<path d="M886 432 c-9 -28 3 -51 30 -58 32 -8 56 13 52 45 -3 22 -9 26 -40 29
-29 2 -38 -1 -42 -16z"/>
<path d="M1850 425 c0 -23 4 -25 44 -25 l44 0 4 -174 c3 -169 4 -175 28 -201
22 -24 30 -26 95 -23 69 3 70 3 73 32 4 28 3 29 -37 22 -22 -3 -51 -2 -65 4
l-26 10 0 190 0 190 -80 0 c-79 0 -80 0 -80 -25z"/>
<path d="M3797 443 c-11 -11 -8 -48 5 -61 32 -32 87 4 73 48 -5 15 -15 20 -39
20 -18 0 -36 -3 -39 -7z"/>
<path d="M4050 224 l0 -226 89 4 c105 4 133 19 169 88 25 51 29 115 8 165 -33
77 -169 96 -195 27 -7 -21 -10 -6 -10 71 l-1 97 -30 0 -30 0 0 -226z m180 36
c29 -15 43 -71 30 -119 -16 -62 -56 -91 -122 -91 l-30 0 4 91 c3 81 6 93 27
110 25 21 62 25 91 9z"/>
<path d="M4887 443 c-11 -11 -8 -48 5 -61 32 -32 87 4 73 48 -5 15 -15 20 -39
20 -18 0 -36 -3 -39 -7z"/>
<path d="M5973 225 l-101 -225 33 0 32 0 101 225 100 225 -32 0 -32 0 -101
-225z"/>
<path d="M410 215 l0 -215 30 0 30 0 2 163 3 162 65 -162 65 -163 38 0 37 0 0
215 0 215 -30 0 -30 0 0 -162 -1 -163 -66 163 -66 162 -39 0 -38 0 0 -215z"/>
<path d="M3310 216 l0 -216 30 0 30 0 0 80 0 80 48 0 48 0 39 -80 c37 -76 41
-80 72 -80 18 0 33 2 33 5 0 3 -18 42 -40 86 l-41 80 24 19 c58 46 62 149 8
204 -31 30 -33 31 -141 34 l-110 4 0 -216z m204 135 c10 -11 18 -36 19 -57 1
-53 -28 -74 -104 -74 l-59 0 0 75 0 75 63 0 c51 0 68 -4 81 -19z"/>
<path d="M162 302 c-129 -54 -132 -56 -132 -87 0 -30 3 -32 138 -88 76 -31
142 -57 146 -57 4 0 6 14 4 32 -3 29 -8 33 -68 55 -139 50 -151 55 -146 60 2
3 51 22 108 42 99 36 103 39 106 69 2 22 -1 32 -10 31 -7 -1 -73 -26 -146 -57z"/>
<path d="M6222 329 c3 -30 8 -34 106 -72 57 -22 101 -41 99 -44 -3 -2 -49 -21
-103 -42 -95 -35 -99 -38 -102 -69 -2 -18 0 -32 4 -32 4 0 70 26 146 57 136
56 138 57 138 88 0 31 -2 32 -137 88 -76 32 -142 57 -146 57 -5 0 -7 -14 -5
-31z"/>
<path d="M1240 319 c-125 -37 -151 -223 -41 -296 29 -19 47 -23 117 -23 l84 0
0 31 0 31 -50 -7 c-59 -8 -113 7 -135 38 -24 34 -19 111 9 144 31 36 93 39
128 6 22 -21 24 -21 46 -3 12 10 20 25 17 32 -15 38 -113 64 -175 47z"/>
<path d="M1585 315 c-48 -17 -71 -43 -86 -98 -21 -80 7 -174 61 -202 39 -20
115 -19 151 2 83 49 84 237 1 285 -42 24 -83 29 -127 13z m88 -65 c48 -38 46
-145 -4 -182 -70 -53 -134 47 -98 151 10 30 35 49 65 50 6 1 23 -8 37 -19z"/>
<path d="M2258 324 c-5 -4 -8 -18 -8 -30 0 -20 6 -23 58 -29 80 -9 102 -19
102 -50 0 -24 -3 -25 -56 -25 -31 0 -71 -7 -89 -15 -58 -28 -74 -107 -30 -150
20 -21 34 -25 80 -25 46 0 60 4 80 24 l25 25 6 -25 c5 -21 12 -24 55 -24 45 0
49 2 49 24 0 17 -7 26 -24 30 -23 6 -24 11 -28 95 -3 97 -20 134 -69 158 -30
15 -141 27 -151 17z m152 -213 c0 -37 -31 -61 -80 -61 -39 0 -60 14 -60 41 0
28 40 49 92 49 46 0 48 -1 48 -29z"/>
<path d="M2693 320 c-61 -12 -80 -26 -92 -63 -23 -68 -1 -88 139 -129 29 -8
46 -19 48 -32 7 -32 -15 -41 -106 -41 l-87 0 -3 -28 -4 -29 112 4 c108 3 113
4 136 31 54 63 18 127 -86 153 -36 9 -72 22 -80 30 -12 12 -12 16 3 32 14 13
35 17 95 18 75 0 77 1 80 26 3 22 -1 26 -35 31 -46 8 -65 7 -120 -3z"/>
<path d="M4509 321 c-50 -16 -71 -33 -90 -74 -38 -84 -17 -180 50 -224 28 -19
48 -23 111 -23 42 0 79 2 82 5 3 3 3 16 1 29 -5 23 -9 24 -68 23 -50 -2 -69 2
-92 19 -15 12 -29 29 -31 38 -3 14 10 16 102 16 l106 0 0 45 c0 87 -36 134
-115 148 -16 3 -42 2 -56 -2z m85 -72 c15 -12 26 -30 26 -45 0 -23 -2 -24 -81
-24 -79 0 -80 0 -73 23 19 62 79 84 128 46z"/>
<path d="M5315 323 c-28 -7 -45 -23 -58 -53 -11 -25 -11 -24 -15 13 l-3 37
-60 0 c-56 0 -59 -1 -59 -25 0 -21 5 -25 30 -25 l30 0 0 -110 0 -110 -35 0
c-31 0 -35 -3 -35 -25 l0 -25 110 0 110 0 0 25 c0 23 -4 25 -40 25 l-40 0 0
70 c0 88 19 137 56 146 33 8 57 -5 64 -37 4 -15 14 -25 29 -27 36 -5 44 10 31
57 -9 34 -18 45 -45 57 -36 15 -37 15 -70 7z"/>
<path d="M5587 320 c-40 -12 -58 -29 -78 -75 -35 -76 -14 -190 42 -229 36 -25
129 -22 164 6 76 60 73 224 -5 279 -31 22 -86 31 -123 19z m88 -75 c21 -20 25
-34 25 -85 0 -51 -4 -65 -25 -85 -29 -30 -55 -32 -86 -6 -21 17 -24 28 -24 91
0 63 3 74 24 91 31 26 57 24 86 -6z"/>
<path d="M790 295 c0 -24 3 -25 55 -25 l55 0 0 -110 0 -110 -65 0 c-63 0 -65
-1 -65 -25 l0 -25 145 0 145 0 0 25 c0 23 -3 25 -50 25 l-50 0 0 135 0 135
-85 0 c-84 0 -85 0 -85 -25z"/>
<path d="M3700 295 c0 -23 3 -25 50 -25 l50 0 0 -110 0 -110 -60 0 c-57 0 -60
-1 -60 -25 l0 -25 145 0 145 0 0 25 c0 23 -3 25 -50 25 l-50 0 0 135 0 135
-85 0 c-84 0 -85 0 -85 -25z"/>
<path d="M4790 295 c0 -23 3 -25 50 -25 l50 0 0 -110 0 -110 -60 0 c-57 0 -60
-1 -60 -25 l0 -25 145 0 145 0 0 25 c0 23 -3 25 -50 25 l-50 0 0 135 0 135
-85 0 c-84 0 -85 0 -85 -25z"/>
</g>
</svg>
